<?xml version="1.0" encoding="utf-8"?>
<!-- Generator: Adobe Illustrator 22.1.0, SVG Export Plug-In . SVG Version: 6.00 Build 0)  -->
<svg version="1.1" id="图层_1" xmlns="http://www.w3.org/2000/svg" xmlns:xlink="http://www.w3.org/1999/xlink" x="0px" y="0px"
	 viewBox="0 0 194.3 44.8" style="enable-background:new 0 0 194.3 44.8;" xml:space="preserve">
<style type="text/css">
	.st0{fill:#FFFFFF;}
</style>
<title>资源 5</title>
<g id="图层_2_1_">
	<g id="图层_1-2">
		<path class="st0" d="M15.2,32.2h-3.9V12.6c0.1-7,5.9-12.7,12.9-12.6c7-0.1,12.8,5.6,12.9,12.6h-3.9c0-5-4-9-9-9c-5,0-9,4-9,9
			L15.2,32.2z"/>
		<path class="st0" d="M12.9,44.8C5.9,44.9,0.1,39.2,0,32.2h3.9C4,37.1,8,41,12.9,41c4.9,0.1,8.9-3.9,9-8.8V12.6h3.9v19.6
			C25.8,39.3,20,44.9,12.9,44.8C12.9,44.8,12.9,44.8,12.9,44.8z"/>
		<path class="st0" d="M44.9,12.4V9.5h20.6v2.9h-8.6v22.9h-3.4V12.4H44.9z"/>
		<path class="st0" d="M71.8,9.5v11.1h13.6V9.5h3.4v25.8h-3.4V23.5H71.8v11.8h-3.4V9.5H71.8z"/>
		<path class="st0" d="M112.3,9.5v2.9H97.9v8.2h13.4v2.9H97.9v8.9h14.5v2.9H94.5V9.5H112.3z"/>
		<path class="st0" d="M120.7,31.3v4h-4v-4L120.7,31.3z"/>
		<path class="st0" d="M139.5,13.1c-1.3-0.9-2.8-1.3-4.4-1.3c-0.7,0-1.4,0.1-2.1,0.2c-0.7,0.1-1.3,0.4-1.9,0.7
			c-0.5,0.3-1,0.8-1.3,1.4c-0.3,0.6-0.5,1.4-0.5,2.1c0,0.7,0.2,1.4,0.7,1.9c0.5,0.5,1.2,0.9,1.9,1.2c0.9,0.3,1.7,0.6,2.6,0.8
			c1,0.2,2,0.4,3,0.7s2,0.5,3,0.9c1,0.3,1.9,0.8,2.7,1.4c0.8,0.5,1.4,1.3,1.9,2.1c0.5,1,0.7,2.1,0.7,3.2c0,1.2-0.3,2.5-0.9,3.5
			c-0.6,1-1.4,1.8-2.4,2.4c-1,0.6-2.1,1.1-3.2,1.3c-1.2,0.3-2.4,0.4-3.6,0.4c-1.4,0-2.8-0.2-4.1-0.5c-1.2-0.3-2.4-0.9-3.4-1.7
			c-1-0.8-1.7-1.7-2.3-2.8c-0.6-1.3-0.9-2.7-0.8-4.1h3.2c0,1,0.2,1.9,0.6,2.8c0.4,0.8,1,1.4,1.7,1.9c0.7,0.5,1.5,0.9,2.4,1.1
			c0.9,0.2,1.9,0.4,2.8,0.4c0.8,0,1.6-0.1,2.3-0.2c0.7-0.1,1.5-0.4,2.1-0.7c1.4-0.7,2.2-2.2,2.1-3.7c0-0.8-0.2-1.6-0.7-2.2
			c-0.5-0.6-1.2-1-1.9-1.4c-0.9-0.4-1.7-0.7-2.6-0.9l-3-0.7c-1-0.2-2-0.5-3-0.8c-0.9-0.3-1.8-0.7-2.6-1.2c-1.7-1-2.7-2.9-2.6-4.9
			c-0.1-2.3,1-4.4,2.9-5.7c0.9-0.6,1.9-1.1,3-1.4c1.1-0.3,2.3-0.5,3.4-0.4c1.2,0,2.5,0.1,3.7,0.5c1.1,0.3,2.1,0.8,3,1.5
			c0.9,0.7,1.5,1.6,2,2.6c0.5,1.2,0.8,2.4,0.8,3.7h-3.3C141.5,15.5,140.7,14,139.5,13.1z"/>
		<path class="st0" d="M162.9,13.1c-1.3-0.9-2.8-1.3-4.4-1.3c-0.7,0-1.4,0.1-2.1,0.2c-0.7,0.1-1.3,0.4-1.9,0.7
			c-0.5,0.3-1,0.8-1.3,1.4c-0.3,0.6-0.5,1.4-0.5,2.1c0,0.7,0.2,1.4,0.7,1.9c0.5,0.5,1.2,0.9,1.9,1.2c0.9,0.3,1.8,0.6,2.7,0.8
			c1,0.2,2,0.4,3,0.7s2,0.5,3,0.9c1,0.3,1.9,0.8,2.7,1.3c0.8,0.5,1.4,1.3,1.9,2.1c0.5,1,0.7,2.1,0.7,3.2c0,1.2-0.3,2.5-0.9,3.5
			c-0.6,0.9-1.4,1.8-2.3,2.4c-1,0.6-2.1,1.1-3.2,1.3c-1.2,0.3-2.4,0.4-3.6,0.4c-1.4,0-2.8-0.2-4.1-0.5c-1.2-0.3-2.4-0.9-3.4-1.7
			c-1-0.7-1.8-1.7-2.3-2.8c-0.6-1.3-0.9-2.7-0.9-4.1h3.3c0,1,0.2,1.9,0.6,2.8c0.4,0.8,1,1.4,1.7,1.9c0.7,0.5,1.5,0.9,2.4,1.1
			c0.9,0.2,1.9,0.4,2.8,0.4c0.8,0,1.6-0.1,2.3-0.2c0.7-0.1,1.5-0.4,2.1-0.7c1.4-0.7,2.2-2.2,2.1-3.7c0-0.8-0.2-1.6-0.7-2.2
			c-0.5-0.6-1.2-1-1.9-1.4c-0.9-0.4-1.7-0.7-2.6-0.9l-3-0.7c-1-0.2-2-0.5-3-0.8c-0.9-0.3-1.8-0.7-2.6-1.2c-0.8-0.5-1.5-1.1-2-1.9
			c-0.5-0.9-0.7-1.9-0.7-3c-0.1-2.3,1-4.4,2.9-5.7c0.9-0.6,1.9-1.1,3-1.4c1.1-0.3,2.3-0.5,3.4-0.4c1.2,0,2.5,0.1,3.7,0.5
			c1.1,0.3,2.1,0.8,3,1.5c0.9,0.7,1.5,1.6,2,2.6c0.5,1.2,0.8,2.4,0.8,3.7h-3.3C164.9,15.5,164.1,14,162.9,13.1z"/>
		<path class="st0" d="M185.5,9.5c2.1-0.1,4.1,0.5,5.8,1.8c1.4,1.3,2.2,3.1,2.1,5c0,1.4-0.3,2.9-1.1,4.1c-0.8,1.2-2,2.1-3.4,2.4v0.1
			c0.7,0.1,1.3,0.4,1.8,0.7c0.5,0.3,0.8,0.7,1.1,1.2c0.3,0.5,0.5,1,0.6,1.6c0.1,0.6,0.2,1.2,0.3,1.8s0.1,1.3,0.1,1.9
			c0,0.6,0.1,1.3,0.2,1.9c0.1,0.6,0.2,1.2,0.4,1.8c0.2,0.5,0.4,1.1,0.8,1.5h-3.8c-0.3-0.3-0.4-0.7-0.5-1.1c-0.1-0.5-0.1-1-0.2-1.5
			c0-0.6-0.1-1.2-0.1-1.8c0-0.6-0.1-1.3-0.2-1.9c-0.1-0.6-0.2-1.2-0.4-1.8c-0.1-0.5-0.4-1-0.7-1.5c-0.3-0.4-0.7-0.8-1.2-1
			c-0.6-0.3-1.3-0.4-2-0.4h-8.4v11h-3.4V9.5H185.5z M186.3,21.2c0.7-0.1,1.3-0.3,1.9-0.7c0.5-0.4,1-0.8,1.3-1.4
			c0.4-0.7,0.5-1.5,0.5-2.3c0-1.2-0.3-2.3-1.1-3.2c-0.9-0.9-2.2-1.3-3.5-1.2h-8.5v9h7.2C184.8,21.4,185.5,21.4,186.3,21.2z"/>
	</g>
</g>
</svg>
