<svg xmlns="http://www.w3.org/2000/svg" viewBox="0 0 194.28 44.81"><title>资源 5</title><g id="图层_2" data-name="图层 2"><g id="图层_1-2" data-name="图层 1"><path d="M15.21,32.19H11.27V12.62A12.79,12.79,0,0,1,24.19,0,12.79,12.79,0,0,1,37.11,12.62H33.17a9,9,0,0,0-18,0Z"/><path d="M12.92,44.81A12.79,12.79,0,0,1,0,32.19H3.94a8.89,8.89,0,0,0,9,8.77,8.89,8.89,0,0,0,9-8.77V12.62h3.94V32.19A12.79,12.79,0,0,1,12.92,44.81Z"/><path d="M44.9,12.42V9.53H65.53v2.89h-8.6v22.9H53.49V12.42Z"/><path d="M71.81,9.53V20.62H85.4V9.53h3.43V35.32H85.4V23.51H71.81V35.32H68.38V9.53Z"/><path d="M112.27,9.53v2.89H97.89v8.2H111.3v2.89H97.89v8.92h14.49v2.89H94.46V9.53Z"/><path d="M120.73,31.31v4h-4v-4Z"/><path d="M139.5,13.05a7.31,7.31,0,0,0-4.39-1.25A10.16,10.16,0,0,0,133,12a5.64,5.64,0,0,0-1.86.72,3.86,3.86,0,0,0-1.3,1.36,4.22,4.22,0,0,0-.48,2.11,2.68,2.68,0,0,0,.7,1.93,5.13,5.13,0,0,0,1.88,1.21,15.7,15.7,0,0,0,2.65.78c1,.2,2,.43,3,.67s2,.52,3,.85A9.53,9.53,0,0,1,143.25,23a6.18,6.18,0,0,1,1.88,2.09,6.45,6.45,0,0,1,.71,3.18,6.42,6.42,0,0,1-.93,3.52,7.59,7.59,0,0,1-2.36,2.39,10.19,10.19,0,0,1-3.23,1.33,15.58,15.58,0,0,1-3.56.42,15.1,15.1,0,0,1-4.1-.54,10.06,10.06,0,0,1-3.4-1.65A7.75,7.75,0,0,1,126,30.9a9,9,0,0,1-.85-4.07h3.25a5.85,5.85,0,0,0,.63,2.8,5.76,5.76,0,0,0,1.66,1.93,7,7,0,0,0,2.41,1.12,11,11,0,0,0,2.82.37,13.1,13.1,0,0,0,2.32-.22,7,7,0,0,0,2.12-.74,3.95,3.95,0,0,0,2.09-3.74,3.25,3.25,0,0,0-.7-2.17,5.26,5.26,0,0,0-1.88-1.35,13.3,13.3,0,0,0-2.65-.85l-3-.67c-1-.23-2-.49-3-.8a10.52,10.52,0,0,1-2.65-1.19,5.34,5.34,0,0,1-2.59-4.86,6.68,6.68,0,0,1,2.91-5.72,9.58,9.58,0,0,1,3-1.38,13.28,13.28,0,0,1,3.45-.45,14,14,0,0,1,3.69.47,8.42,8.42,0,0,1,3,1.48,7.24,7.24,0,0,1,2,2.55,9.19,9.19,0,0,1,.81,3.67H141.5A5.37,5.37,0,0,0,139.5,13.05Z"/><path d="M162.91,13.05a7.31,7.31,0,0,0-4.39-1.25,10.13,10.13,0,0,0-2.13.22,5.47,5.47,0,0,0-1.86.72,3.69,3.69,0,0,0-1.3,1.36,4.12,4.12,0,0,0-.49,2.11,2.68,2.68,0,0,0,.7,1.93,5.13,5.13,0,0,0,1.88,1.21,15.55,15.55,0,0,0,2.66.78c1,.2,2,.43,3,.67s2,.52,3,.85A9.73,9.73,0,0,1,166.67,23a6.26,6.26,0,0,1,1.87,2.09,6.45,6.45,0,0,1,.71,3.18,6.5,6.5,0,0,1-.92,3.52A7.72,7.72,0,0,1,166,34.15a10.19,10.19,0,0,1-3.23,1.33,15.58,15.58,0,0,1-3.56.42,15.15,15.15,0,0,1-4.1-.54,10.06,10.06,0,0,1-3.4-1.65,7.85,7.85,0,0,1-2.31-2.81,9,9,0,0,1-.85-4.07h3.25a5.85,5.85,0,0,0,.63,2.8,5.79,5.79,0,0,0,1.67,1.93,6.81,6.81,0,0,0,2.4,1.12,11,11,0,0,0,2.82.37,13.3,13.3,0,0,0,2.33-.22,7,7,0,0,0,2.11-.74,4,4,0,0,0,2.1-3.74,3.26,3.26,0,0,0-.71-2.17,5.17,5.17,0,0,0-1.88-1.35,13.09,13.09,0,0,0-2.65-.85l-3-.67c-1-.23-2-.49-3-.8a10.68,10.68,0,0,1-2.65-1.19A5.72,5.72,0,0,1,150,19.41a5.68,5.68,0,0,1-.7-2.95,6.64,6.64,0,0,1,2.9-5.72,9.58,9.58,0,0,1,3-1.38,13.28,13.28,0,0,1,3.45-.45,13.91,13.91,0,0,1,3.69.47,8.42,8.42,0,0,1,3,1.48,7.24,7.24,0,0,1,2,2.55,8.87,8.87,0,0,1,.81,3.67h-3.25A5.37,5.37,0,0,0,162.91,13.05Z"/><path d="M185.54,9.53a8.49,8.49,0,0,1,5.76,1.8,6.22,6.22,0,0,1,2.08,5,7.82,7.82,0,0,1-1.06,4.12,5.5,5.5,0,0,1-3.42,2.42v.07a4.65,4.65,0,0,1,1.83.73,3.91,3.91,0,0,1,1.12,1.21,5.58,5.58,0,0,1,.61,1.57c.13.58.23,1.18.31,1.8s.08,1.27.11,1.92a14.89,14.89,0,0,0,.18,1.91,10.89,10.89,0,0,0,.41,1.79,4.35,4.35,0,0,0,.81,1.5h-3.82a2,2,0,0,1-.49-1.08,9.86,9.86,0,0,1-.16-1.54c0-.56-.05-1.17-.08-1.82a12.26,12.26,0,0,0-.21-1.92c-.1-.62-.22-1.22-.37-1.79a4.27,4.27,0,0,0-.68-1.48,3.4,3.4,0,0,0-1.23-1,4.6,4.6,0,0,0-2-.38h-8.39v11H173.4V9.53Zm.72,11.7a4.9,4.9,0,0,0,1.9-.7,3.84,3.84,0,0,0,1.3-1.41,4.7,4.7,0,0,0,.49-2.3,4.64,4.64,0,0,0-1.08-3.18,4.51,4.51,0,0,0-3.51-1.22h-8.53v9H184A13.83,13.83,0,0,0,186.26,21.23Z"/></g></g></svg>